<?xml version="1.0" standalone="no"?>
<!DOCTYPE svg PUBLIC "-//W3C//DTD SVG 20010904//EN"
 "http://www.w3.org/TR/2001/REC-SVG-20010904/DTD/svg10.dtd">
<svg version="1.0" xmlns="http://www.w3.org/2000/svg"
 width="500.000000pt" height="136.000000pt" viewBox="0 0 500.000000 136.000000"
 preserveAspectRatio="xMidYMid meet">

<g transform="translate(0.000000,136.000000) scale(0.100000,-0.100000)"
fill="#000000" stroke="none">
<path d="M157 1202 c-15 -17 -17 -68 -17 -524 0 -476 1 -506 18 -521 17 -15
68 -17 524 -17 392 0 508 3 516 12 7 9 12 193 14 521 4 420 2 511 -9 527 -14
19 -29 20 -522 20 -479 0 -509 -1 -524 -18z m243 -400 l0 -339 26 -24 c25 -24
30 -24 247 -29 l222 -5 0 -55 0 -55 -220 -3 c-142 -2 -234 1 -258 8 -51 15
-119 84 -135 136 -8 29 -12 139 -12 373 l0 331 65 0 65 0 0 -338z m565 249
c22 -10 52 -31 67 -47 56 -60 58 -73 58 -444 l0 -340 -60 0 -60 0 0 325 c0
344 -3 370 -47 391 -10 5 -116 11 -237 14 l-219 5 1 53 c0 28 1 54 1 57 1 3
103 5 229 5 200 0 232 -3 267 -19z m-257 -265 c89 -53 162 -101 162 -106 0 -6
-254 -165 -332 -207 -5 -2 -8 91 -8 207 0 116 3 209 8 207 4 -2 80 -48 170
-101z"/>
<path d="M1640 675 l0 -355 213 2 212 3 0 35 0 35 -172 3 -173 2 0 315 0 315
-40 0 -40 0 0 -355z"/>
<path d="M3060 895 c0 -74 -2 -135 -4 -135 -2 0 -25 12 -52 27 -103 58 -248
24 -315 -73 -101 -147 -28 -341 145 -385 102 -25 217 26 270 121 l31 55 3 263
3 262 -40 0 -41 0 0 -135z m-86 -179 c81 -47 109 -150 63 -231 -63 -112 -231
-112 -294 0 -85 151 83 318 231 231z"/>
<path d="M3212 993 c3 -36 5 -38 41 -41 l37 -3 0 40 0 41 -41 0 -40 0 3 -37z"/>
<path d="M2287 806 c-103 -28 -177 -128 -177 -238 0 -103 49 -179 145 -224 98
-46 214 -20 286 65 102 118 67 306 -69 375 -62 31 -125 39 -185 22z m139 -85
c103 -47 131 -173 58 -261 -36 -42 -74 -60 -129 -60 -119 0 -204 120 -160 225
21 52 42 74 90 96 51 23 89 23 141 0z"/>
<path d="M3217 813 c-4 -3 -7 -116 -7 -250 l0 -243 40 0 40 0 0 250 0 250 -33
0 c-19 0 -37 -3 -40 -7z"/>
<path d="M3539 807 c-76 -21 -135 -73 -165 -146 -18 -43 -18 -142 0 -185 19
-47 73 -104 120 -129 57 -30 165 -30 222 0 61 33 68 45 39 73 l-24 22 -44 -21
c-104 -50 -215 -2 -248 107 -29 97 58 212 161 212 17 0 54 -10 81 -21 48 -21
50 -21 69 -4 30 27 25 39 -27 68 -60 32 -124 40 -184 24z"/>
<path d="M3987 804 c-104 -33 -176 -147 -164 -261 18 -171 203 -272 356 -193
73 37 141 143 141 220 0 9 -7 40 -16 69 -39 133 -184 208 -317 165z m140 -75
c38 -14 83 -57 99 -96 20 -46 17 -90 -7 -140 -60 -124 -244 -123 -304 3 -23
49 -17 129 14 173 43 60 129 86 198 60z"/>
<path d="M4520 800 c-65 -22 -130 -86 -148 -147 -7 -23 -12 -102 -12 -187 l0
-146 35 0 35 0 0 128 c0 143 9 187 47 233 88 104 256 64 293 -69 5 -20 10 -95
10 -165 l0 -128 38 3 37 3 3 120 c4 162 -14 230 -77 296 -34 35 -60 51 -100
63 -69 20 -93 20 -161 -4z"/>
</g>
</svg>
